<?xml version="1.0" standalone="no"?><!DOCTYPE svg PUBLIC "-//W3C//DTD SVG 1.1//EN" "http://www.w3.org/Graphics/SVG/1.1/DTD/svg11.dtd"><svg t="1726156473620" class="icon" viewBox="0 0 1024 1024" version="1.1" xmlns="http://www.w3.org/2000/svg" p-id="1889" xmlns:xlink="http://www.w3.org/1999/xlink" width="200" height="200"><path d="M880 176h-294.4l-67.2 134.4H140.8v537.6h806.4v-672z m0 598.4H214.4V377.6h665.6z m0-464h-262.4l32-67.2h227.2v67.2z m-53.696 128H19.904l121.6 409.6h806.4z" fill="#A07BDB" p-id="1890"></path><path d="M815.104 718.272a41.024 41.024 0 0 0-4.384-81.824h-1.472a40.864 40.864 0 0 0-39.456 42.208v0.16a41.952 41.952 0 0 0 11.68 27.04 261.216 261.216 0 0 1-119.808 114.688 197.536 197.536 0 0 1-119.072 22.656A101.472 101.472 0 0 1 468.096 800a107.328 107.328 0 0 1-5.856-113.248A172.128 172.128 0 0 1 512 628.416c-2.912-9.6-7.296-25.6-9.6-37.248-105.92 76.8-94.976 180.448-62.816 229.408a151.264 151.264 0 0 0 127.104 59.168 180.48 180.48 0 0 0 43.84-5.12 280.32 280.32 0 0 0 204.544-156.352z m128.576-90.592a296.704 296.704 0 0 0-230.848-100.832h-11.68a40.16 40.16 0 0 0-35.808-21.92h-1.472a40.928 40.928 0 0 0 1.472 81.824h1.472a41.152 41.152 0 0 0 35.808-24.832h13.152a278.4 278.4 0 0 1 155.616 47.488 195.808 195.808 0 0 1 77.44 93.504 101.248 101.248 0 0 1-1.472 86.208 107.296 107.296 0 0 1-100.096 59.904 186.88 186.88 0 0 1-71.584-15.328 434.24 434.24 0 0 1-32.864 26.304 225.536 225.536 0 0 0 94.24 22.656 158.592 158.592 0 0 0 141.728-77.44 165.12 165.12 0 0 0-35.2-177.536z m-371.2 103.008a41.024 41.024 0 0 0 40.896 39.456h1.472a40.928 40.928 0 0 0-1.472-81.824h-1.472a12.16 12.16 0 0 0-5.12 0.736 267.648 267.648 0 0 1-37.984-162.176 195.968 195.968 0 0 1 43.104-113.248 126.784 126.784 0 0 1 89.856-40.896c77.44-1.472 110.304 94.976 112.512 133.696 9.6 2.176 25.6 7.296 36.544 10.944-8.768-118.4-81.824-179.712-151.968-179.712a165.28 165.28 0 0 0-150.4 117.632 298.912 298.912 0 0 0 29.216 254.24 32.8 32.8 0 0 0-5.12 21.184z" fill="#AA9FBC" p-id="1891"></path></svg>